<svg xmlns="http://www.w3.org/2000/svg" style="display: none;">
  <!-- LinkedIn Icon -->
  <symbol id="linkedin" viewBox="0 0 24 24">
    <path d="M22.23 0H1.77C.79 0 0 .77 0 1.72v20.56C0 23.23.79 24 1.77 24h20.46C23.21 24 24 23.23 24 22.28V1.72C24 .77 23.21 0 22.23 0zM7.08 20.45H3.56V9h3.52v11.45zM5.32 7.49C4.2 7.49 3.26 6.56 3.26 5.44s.94-2.05 2.06-2.05c1.12 0 2.05.92 2.05 2.05s-.93 2.05-2.05 2.05zm15.13 12.96h-3.52V14.6c0-1.39-.03-3.18-1.94-3.18-1.94 0-2.24 1.51-2.24 3.07v6.45h-3.52V9h3.39v1.56h.05c.47-.88 1.62-1.8 3.33-1.8 3.56 0 4.22 2.34 4.22 5.37v6.32z"></path>
  </symbol>

  <!-- GitHub Icon -->
  <symbol id="github" viewBox="0 0 24 24">
    <path d="M12 0C5.37 0 0 5.37 0 12c0 5.3 3.438 9.799 8.205 11.387.599.111.82-.26.82-.577v-2.234c-3.338.726-4.043-1.416-4.043-1.416-.546-1.387-1.333-1.756-1.333-1.756-1.089-.746.083-.73.083-.73 1.205.085 1.839 1.237 1.839 1.237 1.07 1.835 2.805 1.305 3.492.997.108-.774.419-1.305.762-1.605-2.665-.305-5.467-1.332-5.467-5.932 0-1.31.468-2.382 1.236-3.222-.123-.304-.535-1.524.117-3.177 0 0 1.008-.322 3.3 1.23a11.44 11.44 0 0 1 3-.405c1.02.005 2.048.138 3.003.405 2.292-1.552 3.3-1.23 3.3-1.23.653 1.653.24 2.873.117 3.177.768.84 1.236 1.912 1.236 3.222 0 4.61-2.807 5.624-5.479 5.922.429.37.824 1.102.824 2.222v3.293c0 .319.22.694.825.576C20.565 21.798 24 17.3 24 12 24 5.37 18.63 0 12 0z"></path>
  </symbol>

  <!-- Instagram Icon -->
  <symbol id="instagram" viewBox="0 0 24 24">
    <path d="M12 2.16c3.204 0 3.584.012 4.85.07 1.366.062 2.633.326 3.637 1.33 1.006 1.005 1.268 2.273 1.33 3.637.058 1.267.07 1.647.07 4.85 0 3.204-.012 3.584-.07 4.85-.062 1.364-.324 2.632-1.33 3.637-1.005 1.006-2.273 1.268-3.637 1.33-1.267.058-1.647.07-4.85.07-3.204 0-3.584-.012-4.85-.07-1.364-.062-2.632-.324-3.637-1.33-1.006-1.005-1.268-2.273-1.33-3.637-.058-1.267-.07-1.647-.07-4.85 0-3.204.012-3.584.07-4.85.062-1.364.324-2.632 1.33-3.637 1.005-1.006 2.273-1.268 3.637-1.33 1.267-.058 1.647-.07 4.85-.07zm0-2.16C8.737 0 8.334.012 7.052.07 5.768.127 4.562.346 3.608 1.3.58 4.329.58 7.733.58 12c0 4.267 0 7.671 1.028 10.7.954.954 2.16 1.172 3.444 1.23 1.282.058 1.685.07 4.948.07s3.667-.012 4.95-.07c1.283-.058 2.489-.276 3.443-1.23.954-.954 1.173-2.16 1.23-3.444.058-1.283.07-1.686.07-4.949s-.012-3.667-.07-4.95c-.057-1.283-.276-2.489-1.23-3.443-.954-.954-2.16-1.173-3.444-1.23C15.666.012 15.263 0 12 0z"></path>
    <circle cx="12" cy="12" r="3.5"></circle>
    <path d="M18.5 5.5a1.5 1.5 0 1 1-3.001.001A1.5 1.5 0 0 1 18.5 5.5z"></path>
  </symbol>
</svg>
